<svg xmlns="http://www.w3.org/2000/svg" width="234.733" height="75.307" viewBox="0 0 234.733 75.307">
  <g id="Group_50" data-name="Group 50" transform="translate(-65.937 -409.606)">
    <path id="Path_90" data-name="Path 90" d="M339.751,782.756h.014v-.015Z" transform="translate(-209.656 -323.171)"
      fill="#606060" />
    <path id="Path_91" data-name="Path 91" d="M307.916,758.87l0,0,0,.031Z" transform="translate(-185.275 -323.171)"
      fill="#606060" />
    <path id="Path_92" data-name="Path 92" d="M323.792,737.781h0v0Z" transform="translate(-197.432 -323.171)"
      fill="#fff" />
    <path id="Path_93" data-name="Path 93" d="M496.787,676.793h0l.04-.034v-.007h-.036l-.005.04Z"
      transform="translate(-329.906 -216.681)" fill="#606060" />
    <path id="Path_94" data-name="Path 94"
      d="M299.863,446.141a14.673,14.673,0,0,0-6.231-3.364,48.676,48.676,0,0,0-12.766-1.912,122.058,122.058,0,0,0-15.183.345c-2.62.256-5.264.423-7.849.829-4.758.746-9.491,1.6-14.213,2.483-2.418.453-4.8,1.031-7.178,1.619-4.376,1.085-8.758,2.161-13.091,3.353-3.86,1.061-7.666,2.252-11.477,3.425-4.5,1.386-8.982,2.821-13.478,4.221-2.5.777-4.982,1.586-7.518,2.271-2.314.625-4.341-.557-4.312-2.507a31.512,31.512,0,0,1,.463-4.111c.188-1.274.539-2.534.662-3.811.133-1.366-1.245-2.44-2.916-2.516a7.012,7.012,0,0,0-3.822.99,41.37,41.37,0,0,0-7.451,5.665l-.513.547,0,0-1.593,1.353,0,.005a11.222,11.222,0,0,1-.711,1.016q-1.58,1.823-3.2,3.621a3.653,3.653,0,0,1-.571.428l-.051.344.029.022-.029-.022q-.089.019-.179.033l-.4.222.4-.222,0-.373.227,0a9.381,9.381,0,0,1,.163-.978c.168-.621.37-1.235.558-1.853a.257.257,0,0,0,.021-.139c.175-.372.369-.74.523-1.117.822-2.01,1.633-4.023,2.449-6.034a1.38,1.38,0,0,1,.195-.435q2.14-2.376,4.3-4.74l0,0,3.737-4.732c.125-.194.24-.393.377-.582,2.142-2.975,4.307-5.94,6.422-8.928q1.586-2.24,3.021-4.549c.553-.889.959-1.837,1.431-2.759a.159.159,0,0,0,.029-.135,2.168,2.168,0,0,0,.365-.361,30.893,30.893,0,0,0,3.741-8.683,7.7,7.7,0,0,0,.045-2.637c-.125-1.1-.895-2.017-2.658-1.782a4.35,4.35,0,0,0-1.8.577,15.433,15.433,0,0,0-3,2.458,45.222,45.222,0,0,0-3.586,4.935c-1.348,2.113-2.544,4.29-3.784,6.447a6.483,6.483,0,0,0-.4,1.069l-.223.378a.185.185,0,0,0-.019.167h0a2.46,2.46,0,0,0-.452.478c-1.41,2.738-2.823,5.475-4.2,8.224-.911,1.821-1.763,3.661-2.641,5.492l-.2.739.014.009-1.415,3.021.008,0c-.379.7-.761,1.4-1.134,2.1-.3.556-.431,1.187-1.146,1.54-.13.552-.7.706-1.237.894q-2.93,1.028-5.855,2.065l-.452.031a.812.812,0,0,0-.021.146c-.791.254-1.6.471-2.369.767A147.455,147.455,0,0,0,143.7,457.31c-.831.425-1.576.961-2.361,1.445h0l-4.091,2.041c-.829-.961-1.7-1.911-2.491-2.9-1.489-1.861-3.268-3.592-3.982-5.8a4.841,4.841,0,0,1,.618-4.182,13.158,13.158,0,0,1,3-3.211,11.439,11.439,0,0,1,3.82-2.4,7.414,7.414,0,0,1,1.178-.172,2.188,2.188,0,0,1-.572,1.984c-.846,1.263-1.779,2.489-2.7,3.717a1.321,1.321,0,0,0-.22,1.515,3.027,3.027,0,0,0,2.767,1.279,2.26,2.26,0,0,0,2.4-1.326,43.436,43.436,0,0,0,1.585-4.317,9.864,9.864,0,0,0,.273-2.9,2.4,2.4,0,0,0-2.36-2.328,6.4,6.4,0,0,0-3.923.863l0-.006a20.875,20.875,0,0,0-2,.691,16.133,16.133,0,0,0-6.195,4.6,5.041,5.041,0,0,0-1.329,3.622l-.058.756-.733.922a.726.726,0,0,0-.711.748v0a2.272,2.272,0,0,0-.493.21q-2.559,1.957-5.1,3.934a1.351,1.351,0,0,0-.258.4l-.717.386-.218.155c-1.182.643-2.348,1.306-3.549,1.924a16.052,16.052,0,0,1-5.333,1.969l-.7-.03a3.3,3.3,0,0,1-2.815-2.123,14.182,14.182,0,0,1-.517-1.347c-.376-1.114-.694-2.243-1.121-3.345a4.609,4.609,0,0,0-.909-1.4,2.7,2.7,0,0,0-3.431-.708,32.2,32.2,0,0,0-3.19,1.538,3.132,3.132,0,0,0-.7.713c.111-.014.245-.012.366-.02-.12.008-.255.006-.366.02h.011a4.4,4.4,0,0,0-.846.4c-1.115.877-2.2,1.776-3.3,2.668l-.6.705-1.09.589-.13.154.13-.154,1.184-2.068.631-1.14h0c.591-1.123,1.27-2.221,1.755-3.373.937-2.222,1.872-4.451,2.6-6.72.657-2.036-.972-3.753-3.389-3.883a6.054,6.054,0,0,0-3.8.98,19.575,19.575,0,0,0-3.508,2.871c-2.48,2.764-4.781,5.633-7.174,8.448q-3.428,4.034-6.9,8.041a3.467,3.467,0,0,1-.643.458l-.253-.083a8.5,8.5,0,0,1,.19-1.336,94.788,94.788,0,0,1,5.012-11.82c.985-2.145,2.131-4.241,3.191-6.364.426-.853.053-1.435-1.067-1.722a6.786,6.786,0,0,0-3.64.194,2.109,2.109,0,0,0-1.448,1.139c-.483,1.059-1.062,2.091-1.486,3.164-1.4,3.552-2.825,7.1-4.1,10.682a60.179,60.179,0,0,0-1.886,6.674,6.293,6.293,0,0,0,.194,2.509c.24,1.258,3.057,1.758,4.04,1.123a16.232,16.232,0,0,0,3.181-2.329c2.12-2.317,4.107-4.718,6.035-7.143,2.473-3.111,4.794-6.3,7.267-9.411a39.686,39.686,0,0,1,3.381-3.588,3.241,3.241,0,0,1,2.316-.975,3.463,3.463,0,0,1,.107,1.2,22.627,22.627,0,0,1-1.23,3.714c-1.5,3.129-3.119,6.219-4.7,9.321-.681,1.332-1.491,2.627-2.06,3.988-.458,1.1.228,2.037,1.624,2.331,2.879.6,4.453.107,6.466-2.205h0c.62-.5,1.287-.967,1.848-1.506.831-.8,1.586-1.649,2.373-2.477.414-.269.858-.513,1.235-.813a10.827,10.827,0,0,1,3.714-2.266,7.818,7.818,0,0,1,.851,1.291,15.445,15.445,0,0,0,2.208,4.233,3.716,3.716,0,0,0,2.721,1.721l.006,0a1.993,1.993,0,0,0,.593.323,9.049,9.049,0,0,0,4.521-.453c1.691-.61,3.355-1.274,5-1.96a13.934,13.934,0,0,0,1.644-.946v0a1.875,1.875,0,0,0,.556-.106c1.813-1.051,3.626-2.1,5.41-3.186a4.892,4.892,0,0,0,.857-.845l-.008-.008,1.991-.928a31.73,31.73,0,0,0,5.115,5.76,4.176,4.176,0,0,0,.792.462l0,0a1.728,1.728,0,0,0,.221.512c.539.616,1.107,1.217,1.633,1.789l-1.844,1.425h.009l-.242.191-.005-.009a5.111,5.111,0,0,0-.916.385c-1.276.868-2.559,1.732-3.78,2.648a60.613,60.613,0,0,0-6.87,6.008,5.177,5.177,0,0,0-.62.98h0l.375.738-1.32.395h0a2.758,2.758,0,0,1-1.85,2.858,5.285,5.285,0,0,0-.153,5.011,3.692,3.692,0,0,0,2.759,2.115,13.206,13.206,0,0,0,7.4-.5,17.009,17.009,0,0,0,6.356-4.329,17.667,17.667,0,0,0,4.214-7.257,12.37,12.37,0,0,0,.275-6.532c-.261-1.065-.71-2.1-1.137-3.33.056-.028.254-.133.457-.231l7.691-3.709c.087-.1.147-.237.265-.284q3.8-1.516,7.612-3.011c1.569-.613,3.148-1.211,4.729-1.8a5.6,5.6,0,0,1,.774-.172.377.377,0,0,1,.2-.065,22.258,22.258,0,0,1,5.025-1.573c.349-.1.609.006.635.344-.4,1.143-.808,2.285-1.2,3.431-.318.933-.616,1.871-.923,2.806a.229.229,0,0,0-.015.143c-.457,1.379-.938,2.753-1.363,4.138-.275.9-.47,1.81-.7,2.715q-.048.468-.1.937l-.136.387a10.018,10.018,0,0,0-.159,1.3,1.859,1.859,0,0,0,.221.993,1.588,1.588,0,0,0,1.51.532c.546-.025.625-.347.818-.672a35.394,35.394,0,0,1,2.293-3.59,79.162,79.162,0,0,1,6.373-6.943,93.977,93.977,0,0,1,9.721-8.511,7.682,7.682,0,0,1,1.388-.851,6.763,6.763,0,0,1,1.25-.3,6.433,6.433,0,0,1-.006.9c-.227,1.364-.434,2.731-.722,4.087a8.9,8.9,0,0,0,.295,4.565,4.106,4.106,0,0,0,3.865,3.085,8.7,8.7,0,0,0,2.862-.225c2.288-.586,4.538-1.274,6.783-1.965,2.939-.905,5.86-1.848,8.784-2.783,3.468-1.109,6.942-2.208,10.4-3.347,6.48-2.137,13.1-3.972,19.774-5.647,4.7-1.18,9.476-2.165,14.3-3.021a124.969,124.969,0,0,1,16.918-1.953,82.668,82.668,0,0,1,16.083.51,31.383,31.383,0,0,1,9.2,2.537,9.48,9.48,0,0,1,3.724,2.917,1.541,1.541,0,0,0,1.557.767,1.953,1.953,0,0,0,1.786-1C300.918,447.3,300.43,446.706,299.863,446.141ZM96.574,454.213h0c-.084.122-.157.251-.237.376C96.416,454.464,96.49,454.335,96.574,454.213Zm39.371,5.807h0l-.133-.111Zm-4.46,19.113a1.174,1.174,0,0,1-1.383.994c.1.456-.109.738-.651.95a4.442,4.442,0,0,0-1.941.928c-.106.125-.419.129-.628.206-.9.329-1.966-.221-2.834.357-.089.059-.407-.1-.618-.167s-.451-.213-.629-.175c-1.23.262-1.708-.513-2.3-1.079a1.344,1.344,0,0,1,.386-1.961l.065-.382c-.072-.225-.272-.486-.194-.671.4-.944.458-2.072,1.882-2.521-.057-.434-.145-.877.486-1.119.228-1.148,1.613-1.6,2.278-2.482a.989.989,0,0,1,.957-.386c.041-.872.076-.911.975-1.1l0,0a2.849,2.849,0,0,0,.58-.268q1.624-1.284,3.216-2.594a2.824,2.824,0,0,0,.414-.542c-.08.036-.161.071-.242.105.081-.035.162-.069.242-.105h0l.773-.56a.166.166,0,0,0,.131-.022l4.257-2.833a.587.587,0,0,0,.2-.036,8.338,8.338,0,0,1,.493.935,8.211,8.211,0,0,1,.131,5.023,17.328,17.328,0,0,1-3.567,6.893c-.647.776-1.37,1.512-2.058,2.266ZM166.9,460.477h0c-.063.06-.124.122-.188.181C166.777,460.6,166.838,460.537,166.9,460.477ZM188.8,413.1c.557-.62,1.141-1.476,2.436-1.342q.031.542.062,1.085a12.326,12.326,0,0,1-.561,2.1c-.87,1.911-1.77,3.816-2.77,5.685a126.4,126.4,0,0,1-8.967,14.152,1.818,1.818,0,0,0-.18.536h.008l-.944,1.323h.007c-.184.191-.389.372-.549.576-.9,1.148-1.8,2.3-2.691,3.454q-.311.54-.623,1.081t-.628,1.083l.03.039-.285.183-.381.208,1.419-3.014c.064-.175.12-.352.193-.525q.607-1.44,1.22-2.879a.11.11,0,0,0,.006-.121,1.789,1.789,0,0,0,.357-.363c.487-.955.978-1.909,1.421-2.877.523-1.14,1-2.295,1.495-3.443a.187.187,0,0,0,.027-.119c.44-.727.91-1.443,1.313-2.183,2.01-3.69,3.96-7.4,6.023-11.072A20.134,20.134,0,0,1,188.8,413.1Z"
      fill="#606060" />
  </g>
</svg>