<svg xmlns="http://www.w3.org/2000/svg" width="57.829" height="57.816" viewBox="0 0 57.829 57.816">
  <path id="Path_96" data-name="Path 96" d="M894.274,546.49A14.823,14.823,0,1,0,909.1,561.313,14.8,14.8,0,0,0,894.274,546.49Zm0,24.461a9.637,9.637,0,1,1,9.637-9.637,9.655,9.655,0,0,1-9.637,9.637Zm18.887-25.067a3.457,3.457,0,1,1-3.457-3.457A3.45,3.45,0,0,1,913.161,545.884Zm9.818,3.509c-.219-4.631-1.277-8.734-4.67-12.114s-7.483-4.438-12.114-4.67c-4.773-.271-19.081-.271-23.854,0-4.619.219-8.721,1.277-12.114,4.657s-4.438,7.483-4.67,12.114c-.271,4.773-.271,19.081,0,23.854.219,4.631,1.277,8.734,4.67,12.114s7.483,4.438,12.114,4.67c4.773.271,19.081.271,23.854,0,4.631-.219,8.734-1.277,12.114-4.67s4.438-7.483,4.67-12.114c.271-4.773.271-19.068,0-23.841Zm-6.167,28.963a9.757,9.757,0,0,1-5.5,5.5c-3.806,1.509-12.837,1.161-17.042,1.161s-13.249.336-17.042-1.161a9.756,9.756,0,0,1-5.5-5.5c-1.51-3.806-1.161-12.836-1.161-17.042s-.335-13.249,1.161-17.042a9.756,9.756,0,0,1,5.5-5.5c3.806-1.51,12.836-1.161,17.042-1.161s13.249-.336,17.042,1.161a9.756,9.756,0,0,1,5.5,5.5c1.509,3.806,1.161,12.837,1.161,17.042S918.322,574.562,916.812,578.356Z" transform="translate(-865.353 -532.405)" fill="#435760"/>
</svg>
