<svg xmlns="http://www.w3.org/2000/svg" width="62.866" height="41.184" viewBox="0 0 62.866 41.184">
  <g id="Group_53" data-name="Group 53" transform="translate(0)">
    <path id="Path_95" data-name="Path 95" d="M823.408,102.855a16.052,16.052,0,0,1-1.239,2.755,6.124,6.124,0,0,1-5.394,2.611c-5.422-.016-10.845-.005-16.267-.005q-16.635,0-33.271.007a6.406,6.406,0,0,1-5.44-2.55,6.217,6.217,0,0,1-1.255-3.892q.015-8.9,0-17.8,0-5.156,0-10.313a6.3,6.3,0,0,1,6.629-6.618q7.581-.011,15.162,0,17.188,0,34.376-.007a6.184,6.184,0,0,1,5.456,2.613,16.025,16.025,0,0,1,1.239,2.755ZM768.6,71.221c.178.206.273.332.384.443q11.041,11.045,22.085,22.087c.708.708,1.109.71,1.813.006q11.045-11.041,22.086-22.086c.117-.117.213-.255.374-.45Zm1.232,32.792h44.246L801.237,91.175a4.476,4.476,0,0,1-.372.472c-1.7,1.711-3.4,3.428-5.122,5.122a5.081,5.081,0,0,1-7.532,0c-1.735-1.709-3.446-3.442-5.169-5.162-.153-.153-.317-.3-.417-.388Zm-5.1-30.578c-.009.1-.022.183-.022.261q0,14.082.006,28.165a5.3,5.3,0,0,0,.147.892l14.593-14.593Zm39.831,14.733,14.5,14.5c.213-.456.357-27.758.132-29.13Z" transform="translate(-760.542 -67.039)" fill="#435760"/>
  </g>
</svg>
