<?xml version="1.0" encoding="utf-8"?>
<!-- Generator: Adobe Illustrator 26.3.1, SVG Export Plug-In . SVG Version: 6.00 Build 0)  -->
<svg version="1.1" id="Instagram" xmlns="http://www.w3.org/2000/svg" xmlns:xlink="http://www.w3.org/1999/xlink" x="0px"
	y="0px" viewBox="0 0 32 32" style="enable-background:new 0 0 32 32;" xml:space="preserve">
	<style type="text/css">
		.st0 {
			fill: #F4F4F4;
		}
	</style>
	<path class="st0" d="M27.2,4.8C21-1.3,11-1.3,4.8,4.8c-3,3-4.6,7-4.6,11.2c0,8.7,7.1,15.8,15.8,15.8c4.2,0,8.2-1.7,11.2-4.6
	C33.3,21,33.3,11,27.2,4.8z M21.5,9.7c0,0-0.1,0-0.1,0c-0.5,0-1,0-1.6,0c-0.2,0-0.4,0-0.6,0.1c-0.6,0.1-1,0.5-1.1,1
	C18,11,18,11.2,18,11.4c0,0.8,0,1.6,0,2.3c0,0,0,0,0,0.1h3.5c0,0.1-0.6,3.2-0.6,3.3H18v8.4c0.2,0-4.5,0-4.4,0c0-0.1,0-8.3,0-8.4
	h-3.1v-3.3h3.1c0,0,0-0.1,0-0.1c0-0.8,0-1.7,0-2.5c0-0.4,0-0.9,0.1-1.3c0.2-0.8,0.5-1.4,1.1-2c0.5-0.5,1.1-0.9,1.8-1.1
	c0.5-0.2,1-0.3,1.5-0.3c0.5,0,1,0,1.5,0c0.3,0,0.6,0,1,0.1c0.3,0,0.6,0.1,0.9,0.1c0,0,0,0,0.1,0V9.7z" />
</svg>