<?xml version="1.0" encoding="UTF-8"?>
<svg id="Layer_1" xmlns="http://www.w3.org/2000/svg" viewBox="0 0 701.25 378.88">
    <defs>
        <style>
            .cls-1 {
                fill: #fff;
            }
        </style>
    </defs>
    <g id="Group_4">
        <path id="Path_1" class="cls-1"
            d="M574.55,231.43l-.9-5.46c3.74-.61,7.27-1.15,10.8-1.77,3.76-.65,3.88-.81,3.31-4.48-.58-3.67-1.23-7.32-1.9-11.29l-14.65,2.32-.9-5.38,31.05-5.12,.98,5.36-14.67,2.53,2.4,15.09,14.67-2.35,1.01,5.37-31.19,5.18h-.01Z" />
        <path id="Path_2" class="cls-1"
            d="M360.63,.25h5.81c-.21,10.49-.43,20.88-.64,31.43h-5.31v-14.82h-15.36v14.36h-5.72c.24-10.33,.48-20.63,.73-31.21h5.28V14.67h15.22V.25h-.01Z" />
        <path id="Path_3" class="cls-1"
            d="M597.43,329.38c-1.51,4.28-3,8.56-4.56,12.83-.59,2.29-2,4.27-3.97,5.57-5.06,2.92-10.24,.63-12.61-5.77-2.32,1.82-5.36,2.44-8.2,1.67-2.59-.96-5.23-1.8-8.03-2.77l1.65-5.06c2.42,.8,4.71,1.58,7,2.32,5.28,1.7,7.81,.45,9.64-4.77,.58-1.63,1.09-3.27,1.72-5.15l-13.92-5,1.63-4.95,2.69,.58,26.92,9.34c.03,.38,.05,.76,.05,1.14h-.01Zm-3.04,3.79l-12.62-4.39c-.86,2.39-1.79,4.64-2.48,6.97-.94,3.24,.93,6.65,4.17,7.59,.05,.01,.11,.04,.16,.05,3.13,1.39,6.79-.03,8.18-3.14,0-.03,.01-.04,.03-.06,.9-2.13,1.59-4.36,2.54-7h.02Z" />
        <path id="Path_4" class="cls-1"
            d="M554.32,115.17c-5.67,3.37-11.34,6.76-17.01,10.17-.83,.5-1.68,.93-2.95,1.63,.95-2.44,18.12-13.66,26.39-17.65l.81,1.73-5.83,25.18-1.64,6c5.47-2.77,10.79-5.85,15.93-9.21,.55-.35,.74-1.29,1.09-1.95h3.73c-.46,.69-.68,1.34-1.13,1.62-8.1,5.02-16.19,9.99-24.29,15.02-1.39,.86-1.85,.3-2.19-.95,2.14-8.76,4.28-17.52,6.39-26.32,.4-1.68,.6-3.39,.89-5.1,.14-.13,.26-.25,.39-.39-.06-.08-.13-.15-.2-.21l-.35,.44h-.01Z" />
        <path id="Path_5" class="cls-1"
            d="M378.65,16.08c3.49,1.7,7.24,.74,10.19,2.53l-.16,.96-10.24-1.2-2.1,12.73c5.18,1.39,10.52,1.33,15.44,2.99-7.1,.43-14.22-.35-21.06-2.29l4.59-30.74c7.02,.7,13.97,1.98,20.78,3.81-5.2-.06-10.39-.48-15.54-1.26l-1.93,12.44,.03,.03Z" />
        <path id="Path_6" class="cls-1"
            d="M466.08,61.5c-.34,1.67-1.26,1.29-2.3,.71-2.85-1.59-5.71-3.14-8.56-4.71l-8.35-4.56,14.99-27.47c6.84,2.64,13.15,6.5,18.6,11.38-5.28-2.12-9.43-5.06-14.46-7.36l-6.31,11.43c2.62,1.44,5.12,2.84,7.66,4.21,.89,.48,1.72,.91,.9,2.09l-9.48-4.62-6.31,11.54,13.62,7.35h0Z" />
        <path id="Path_7" class="cls-1"
            d="M590.14,168.46l-4.93-11.09-27.42,11.73-2.18-5.02,27.37-11.82-4.56-11.17,.56-.44c.48,.3,1.19,.5,1.38,.91,3.71,8.53,7.37,17.09,10.99,25.65,.09,.23-.2,.61-.31,.91l-.9,.33h0Z" />
        <path id="Path_8" class="cls-1"
            d="M549.02,365.04c.76-1.8,1.44-3.64,2.29-5.41,2.18-4.49,4.44-8.95,6.85-13.77l28.18,13.92-9.47,19.11c-.49-1.41,.16-3.91,1.97-7.51,1.19-2.39,2.37-4.8,3.64-7.4l-11.98-5.96-4.39,9.18c-.19-.04-.39,0-.54,.13-1.25-.66-.65-1.46-.24-2.33,1.2-2.48,2.35-5,3.59-7.64-2.1-1.09-3.93-2.08-5.8-2.99-1.95-.96-3.93-1.87-6.02-2.85-1.94,3.93-3.69,7.59-5.57,11.19-.6,.93-1.3,1.79-2.08,2.57-.09-.15-.26-.24-.45-.21h.01Z" />
        <path id="Path_9" class="cls-1"
            d="M517.22,65.49c-1.13,.5-1.74,.16-1.93-1.09-.38-2.23-1.8-4.14-3.83-5.15-1.95-1.19-4.44-.99-6.18,.5-1.67,1.48-1.79,2.58-.74,5.36,1.14,2.67,2.13,5.41,2.95,8.19,1.43,4.53-1.09,9.37-5.62,10.79-1.25,.39-2.58,.5-3.88,.3h-1.05l-2.57-.94h-.05c-.93-.69-1.89-1.33-2.77-2.09-2.45-1.87-3.86-4.82-3.76-7.9,0-.43,.66-.81,1.23-1.45,.19,1.5,.49,2.98,.89,4.44,1.03,3.39,4.54,5.38,7.98,4.51,3.36-1.14,4.56-4.26,3.18-8.28-.95-2.74-2.17-5.41-2.94-8.2-1.05-3.94,1.29-8,5.25-9.05,1.18-.31,2.42-.34,3.61-.05,3.41,.84,6.47,2.7,8.8,5.33l1.44,4.77h0Z" />
        <path id="Path_10" class="cls-1"
            d="M333.64,27.39c-2.67,3.13-6.41,5.16-10.49,5.7-7.59,.96-14.76-3.72-16.91-11.07-.29-.89-.54-1.78-.81-2.67l-.04-.83c-.31-5.95,2.69-11.58,7.81-14.64,4.98-3.02,11.23-3,16.19,.03,.86,.48,2.12,.93,.88,2.27-2.73-1.79-5.9-2.79-9.16-2.9-3.09-.05-5.97,1.53-7.62,4.13-4.12,6.79-3.18,15.5,2.3,21.26,3.72,3.54,9.53,3.66,13.4,.29,1.01-.76,1.93-1.7,2.99-2.39,.25-.11,.98,.53,1.46,.81h.01Z" />
        <path id="Path_11" class="cls-1"
            d="M434.29,13.96l5.12,1.92-11.03,27.63c4.91,1.84,9.65,4.11,14.17,6.76-6.84-1.87-13.52-4.24-19.99-7.14l11.73-29.18h0Z" />
        <path id="Path_12" class="cls-1"
            d="M405.61,5.73l5.27,1.48-7.74,28.8,15.64,4.46c-2.53,1.15-14.74-1.69-21.37-4.56l8.21-30.17h-.01Z" />
        <path id="Path_13" class="cls-1"
            d="M590.1,253.38h-12.72c0,2.53,.06,5.18,0,7.8,.23,2.49,.08,5.02-.46,7.46l-.73-.08v-20.92h0l4.14-.06,4.91,.06,4.17,.06,2.75,.05,15.14,.64v5.06h-14.4l-2.8-.06h0Z" />
        <path id="Path_14" class="cls-1" d="M606.28,234.3l.5,5.47-31.38,2.2-.5-5.46,31.38-2.22h0Z" />
        <path id="Path_15" class="cls-1"
            d="M494.55,310.67v12.66c-2.03,.73-2.37-.16-2.37-1.6v-16.74c.79-.71,2.02-.65,2.72,.15,.13,.14,.24,.3,.31,.48,1.2,1.85,2.43,3.69,3.67,5.52,.7,1.01,1.45,2.03,2.22,3.13,2.62-3.38,5.03-6.55,7.51-9.67,.18-.21,.85-.03,1.63-.03,0,6.07,.03,11.98,0,17.88,0,1.36-.94,1.38-2.44,.76v-12.73c-3.43,2.29-4.29,5.62-6.57,8.14l-5.71-8.19-.98,.25h.01Z" />
        <path id="Path_16" class="cls-1"
            d="M301.84,35.39c-.81,2.53-3.09,1.6-5.11,2.33l-6.72-30.65,5.23-1.28c.75,3.37,1.43,6.5,2.14,9.62,1.38,5.97,2.77,11.94,4.17,17.9l.29,2.08Z" />
        <path id="Path_17" class="cls-1"
            d="M569.13,310.56l1.35-3.22,30.22,7.47-1.19,5.11c-1.63-.34-3.08-.6-4.49-.95-7.99-1.98-15.98-3.99-23.96-6.01-.74-.26-1.44-.6-2.1-1.01l.19-1.39h-.01Z" />
        <path id="Path_18" class="cls-1"
            d="M394.86,323.24c-1.05,.8-2.55,.6-3.36-.44-.09-.1-.15-.21-.21-.34-.81-1.14-1.62-2.28-2.45-3.38-2.32-3.04-2.75-3.18-7.01-2.03v6.34l-2.57,.26v-18.99c3.44-.28,6.9-.2,10.33,.25,2.42,.26,4.33,2.15,4.63,4.56,.5,2.37-.7,4.77-2.9,5.78l-1.73,.95,5.26,7.04h.01Zm-13.13-9.11h5.06c.46,.01,.93,0,1.39-.06,2.35-.4,3.86-1.95,3.73-3.83-.25-1.92-1.9-3.34-3.83-3.31-2.03-.14-4.12-.03-6.35-.03v7.24h0Z" />
        <path id="Path_19" class="cls-1"
            d="M358.22,323.67v-18.88h13.51c.58,1.3,.29,2.07-1.19,2.08-1.87,.03-3.73,0-5.57,0h-4.04v5.83c1.95,.05,3.99,.13,6.02,.16,.81-.08,1.63-.05,2.43,.05,.5,.14,.95,.71,1.41,1.1-.46,.39-.9,1.08-1.38,1.11-2.09,.13-4.18,.05-6.29,.08-.68,0-1.35,.15-2.23,.24v5.62c1.67,.08,3.36,.19,5.06,.24,1.4,.04,2.79,0,4.19,0,.93,0,2.12-.18,1.9,1.24-.06,.44-1.15,1.01-1.78,1.04-3.97,.13-7.9,.08-12.04,.08h-.01Z" />
        <path id="Path_20" class="cls-1"
            d="M438.46,304.65c3.43,0,6.34-.14,9.23,.04,2.68-.14,5.08,1.67,5.7,4.27,.71,2.59-.58,5.32-3.04,6.41-.4,.3-.78,.65-1.13,1.01l4.88,6.96c-1.16,.78-2.73,.45-3.51-.71-.08-.11-.14-.23-.19-.34-.63-.98-1.31-1.92-2.05-2.82-1.71-2.19-4.15-3.11-7.31-2.77v6.46c-1.26,.65-2.49,1.06-2.53-.55-.14-6-.05-11.99-.05-17.95h0Zm2.62,9.34c2.33,0,4.52,.16,6.66-.05,1.95-.13,3.42-1.82,3.31-3.76,0-1.77-1.41-3.21-3.18-3.21h-.23c-2.14-.16-4.31-.04-6.55-.04v7.05h-.01Z" />
        <path id="Path_21" class="cls-1"
            d="M316.04,310.96c-.08,1.9-.16,3.82-.2,5.73-.03,1.74,0,3.49,0,5.25,0,1.33-.48,2.03-2.12,1.51v-18.63c1.92-.89,2.57,.63,3.38,1.65,3.08,4.03,6.37,7.9,9.87,11.59v-13.06c1.59-.71,2.53-.63,2.53,.9,.05,5.81,0,11.61,0,17.2-1.77,1.14-2.38-.04-3.07-.94-2.23-2.84-4.42-5.71-6.67-8.53-.84-1.05-1.79-2.03-2.69-3.04l-1.03,.34h0Zm.21-.84c-.08-.05-.16-.15-.21-.14-.09,.06-.18,.14-.25,.21l.44,.16,.03-.24h0Z" />
        <path id="Path_22" class="cls-1"
            d="M527.48,323.83c-5.16,.26-9.55-3.72-9.82-8.89-.01-.33-.01-.65,0-.98,.09-5.36,4.51-9.64,9.87-9.55s9.64,4.51,9.55,9.87c-.09,5.26-4.34,9.49-9.6,9.55Zm7.15-9.83c-.25-4.02-3.69-7.07-7.71-6.82-4.02,.25-7.07,3.69-6.82,7.71,.24,3.94,3.58,6.97,7.52,6.84,4.01-.33,7.07-3.71,7.01-7.72h0Z" />
        <path id="Path_23" class="cls-1"
            d="M431.14,314.24c-.03,5.35-4.38,9.67-9.73,9.64s-9.67-4.38-9.64-9.73c-.11-5.31,4.09-9.7,9.4-9.82h.54c5.2,0,9.43,4.21,9.43,9.4,0,.16,0,.34-.01,.5h.01Zm-2.47-.05c-.21-3.97-3.62-7.01-7.59-6.8s-7.01,3.62-6.8,7.59c.2,3.73,3.23,6.69,6.96,6.81,4.08,.01,7.4-3.28,7.41-7.36v-.23h.01Z" />
        <path id="Path_24" class="cls-1"
            d="M471.58,319.54c2.33,.78,4.68,1.43,7.09,1.93,1.64,.4,3.31-.61,3.71-2.25,0-.05,.03-.1,.04-.15,.43-2.09-1.21-2.85-2.79-3.41s-3.17-.78-4.68-1.35c-2.13-.53-3.58-2.5-3.44-4.7-.1-2.19,1.35-4.16,3.48-4.7,3.17-1.31,6.82-.59,9.25,1.84-.5,1.84-1.43,1.46-2.7,1.01-1.58-.65-3.28-.95-5-.89-1.16,.36-2.09,1.24-2.53,2.38-.5,1.4,.65,2.39,1.95,2.83,1.65,.55,3.38,.89,5.03,1.44,2.53,.46,4.27,2.82,3.98,5.38-.24,2.54-2.25,4.56-4.8,4.81-2.79,.46-5.66-.15-8.01-1.72-1.24-.81-1.59-1.67-.55-2.47h-.03Z" />
        <path id="Path_25" class="cls-1"
            d="M342.72,307.06l-6.27-.33-.38-.75c.55-.5,1.08-1.38,1.64-1.39,4.41-.11,8.83-.06,13.23-.06,0,1.29-1.98,2.18-5.95,2.69v14.2c0,1.44-.04,2.69-2.29,1.95v-16.31h.01Z" />
        <path id="Path_26" class="cls-1"
            d="M303.34,304.29c.58,.44,1.67,.88,1.67,1.33,.11,5.57,.1,11.13,.06,16.66,0,1.57-1.06,1.45-2.3,1.16v-18.4l.58-.75h0Z" />
        <path id="Path_27" class="cls-1"
            d="M461.38,323.47v-18.64c1.31-.5,2.22-.38,2.22,1.13,0,5.46,0,10.92-.04,16.38-.01,1.33-.83,1.49-2.18,1.14h0Z" />
        <path id="Path_28" class="cls-1"
            d="M403.84,323.43c-2.73-.3-1.85-2.22-1.85-3.43-.05-9.61,.57-14.69,1.85-15.24v18.67Z" />
        <path id="Path_29" class="cls-1"
            d="M163.59,302.77c.51,4.33-1.68,8.54-5.52,10.59,.76-3.99,2.68-7.67,5.52-10.59Z" />
        <path id="Path_30" class="cls-1" d="M166.41,298.58l1.13,2.74-3.94,1.46,2.82-4.21h0Z" />
        <path id="Path_31" class="cls-1"
            d="M164.13,319.66c-.2,1.24-.29,2.49-.26,3.76,.34,3.49,3.09,6.26,6.57,6.64,4.76,.68,9.6-.21,13.81-2.53,2.48-1.44,4.93-2.9,7.4-4.37,.39,1.5-.46,3.05-1.94,3.54-2.03,.98-4.38,1.36-5.8,3.43-.31,.46-1.25,.48-1.88,.76-2.68,1.21-5.87-.81-8.46,1.33-.26,.21-1.21-.39-1.85-.61s-1.35-.79-1.88-.65c-3.67,.98-5.1-1.9-6.89-3.99-1.44-2.39-.94-5.46,1.16-7.29h.01Z" />
        <path id="Path_32" class="cls-1"
            d="M180.5,291.66c-3.39,4.8-6.8,9.59-10.19,14.37-.16,.24-.61,.28-.91,.41-.16-1.62-.44-3.27,1.45-4.17,.69-4.26,4.82-5.93,6.81-9.19,.54-1.04,1.7-1.62,2.85-1.43h-.01Z" />
        <path id="Path_33" class="cls-1"
            d="M169.38,306.43l-5.06,11.82c-.21-.84-.81-1.8-.58-2.48,1.21-3.49,1.38-7.66,5.65-9.34h-.01Z" />
        <path id="Path_34" class="cls-1" d="M183.4,287.59c0,2.03-1.57,2.99-2.9,4.08,.13-3.23,.23-3.38,2.9-4.08Z" />
        <path id="Path_35" class="cls-1" d="M191.66,323.16l4.14-3.68c0,2.05-1.67,3.71-3.72,3.71-.14,0-.29,0-.43-.03Z" />
        <path id="Path_36" class="cls-1"
            d="M527.88,89.48l2.44-5.27-.46-.69c-4.13,1.54-8.45,2.44-12.47,4.37l-11.23,3.37c-1.11,.34-2.28,.86-2.74-.85l2.67-1.1,1.51-.38,24.64-7.77c.99-.36,1.99-.66,3-.91,1.51-.3,2.2,.43,1.69,1.97-.66,1.98-1.51,3.91-2.3,5.83-3.17,7.76-6.34,15.51-9.52,23.25-.18,.41-.41,.8-.79,1.55-.94-.83-1.77-1.51-2.55-2.27-1.13-.9-1.41-2.48-.7-3.73,2.07-4.81,3.99-9.67,5.95-14.52,.3-.74,.48-1.51,.71-2.3,.15-.14,.21-.35,.15-.54h0Z" />
        <path id="Path_37" class="cls-1"
            d="M529.61,121.04l-2.53-4.28,24.84-18.81,3.37,4.24c-3.39,2.58-6.64,5.02-9.85,7.47-4.73,3.59-9.44,7.2-14.17,10.78-.48,.29-.99,.53-1.51,.7l-.18,.16s-.04-.01-.05-.03c.04-.08,.06-.15,.09-.23v-.03Z" />
        <path id="Path_38" class="cls-1"
            d="M253.3,32.6l-1.16-3.58-2.85-9.23,5.5-1.9,18.92,19.69c1.41-9.43,2.03-18.28,3.12-27.16l5.06-1.83,10.17,29.86-4.97,1.57-3.76-9.58-.09-.2-4.85-15.39c-.83,3.71-1.41,7.46-1.75,11.23-.6,5.9-1.14,11.81-1.7,17.72-.14,.1-.19,.28-.11,.43-1.62,1.04-2.49-.1-3.48-1.11-3.19-3.31-6.42-6.57-9.64-9.85l-9.08-9.11-.31-.93c-.09,.08-.25,.2-.24,.23,.14,.26,.3,.5,.46,.76,2.2,6.72,4.39,13.45,6.57,20.16,.58,1.59,.89,3.26,.94,4.95-2.63-5.42-4.9-11.02-6.79-16.75l.05,.04Z" />
        <path id="Path_39" class="cls-1"
            d="M576.89,295.5l1.82-.81c3.66-.95,7.32-1.87,10.98-2.85,2.8-.76,5.57-1.62,8.89-2.59-1.11-.83-1.93-1.51-2.82-2.09-5.73-3.78-11.49-7.5-17.2-11.31-1-.75-1.95-1.58-2.84-2.45l.5-.71c.46,.19,.91,.4,1.35,.64,8.56,5.62,17.1,11.27,25.64,16.91,.63,.58,1.16,1.25,1.59,1.99-.69,.55-1.44,1.01-2.22,1.4-2.05,.76-4.16,1.4-6.25,2.08l-1.35,.34-17.72,5.35-3.99,1.08-1.4,.4c.03-1.63,.05-3.24,.08-4.86l4.95-2.5h0Z" />
        <g id="Group_3">
            <path id="Path_43" class="cls-1" d="M301.6,248.97h.03v.03l-.03-.03Z" />
            <path id="Path_44" class="cls-1"
                d="M698.88,197.25c-4.97-5.76-11.39-10.07-18.62-12.46-12.24-4.42-25.13-6.81-38.15-7.09-15.14-.74-30.3-.31-45.36,1.28-7.83,.95-15.73,1.57-23.45,3.07-14.21,2.77-28.35,5.92-42.47,9.2-7.22,1.68-14.35,3.82-21.45,6-13.07,4.02-26.17,8-39.11,12.42-11.53,3.93-22.9,8.34-34.29,12.68-13.45,5.13-26.82,10.45-40.26,15.64-7.46,2.88-14.89,5.87-22.46,8.41-4.76,1.98-10.22-.28-12.19-5.03-.56-1.34-.8-2.8-.69-4.26,.19-5.1,.65-10.18,1.38-15.24,.56-4.72,1.62-9.39,1.98-14.11,.24-4.91-3.54-9.08-8.44-9.31h-.28c-4.12-.13-8.15,1.18-11.42,3.67-8.21,6.1-15.69,13.15-22.27,20.98l-1.51,2.03h0l-4.76,5.02h0c-.65,1.29-1.35,2.54-2.13,3.77-3.14,4.51-6.34,8.98-9.58,13.42-.51,.59-1.09,1.11-1.7,1.59l-.15,1.28,.09,.08-.09-.08c-.18,.05-.35,.09-.54,.13l-1.19,.83,1.19-.83v-1.38h.68c.16-1.21,.23-2.44,.5-3.62,.5-2.3,1.11-4.56,1.67-6.86,.06-.16,.09-.34,.06-.5,.5-1.38,1.1-2.74,1.57-4.14,2.45-7.45,4.9-14.9,7.31-22.35,.11-.56,.31-1.11,.58-1.62,4.27-5.87,8.55-11.72,12.85-17.57h0l11.12-17.54c.38-.71,.71-1.45,1.13-2.15,6.4-11.02,12.87-22.01,19.19-33.08,3.16-5.53,6.17-11.16,9.03-16.85,1.65-3.29,2.87-6.81,4.28-10.22,.09-.15,.13-.34,.09-.5,.41-.4,.78-.85,1.09-1.34,5.12-10.19,8.88-21,11.18-32.16,.5-3.23,.54-6.52,.14-9.78,.19-3.54-2.53-6.56-6.07-6.75-.63-.04-1.25,.03-1.87,.18-1.95,.24-3.81,.96-5.38,2.14-3.37,2.64-6.37,5.7-8.95,9.11-3.94,5.87-7.52,11.97-10.72,18.28-4.04,7.83-7.59,15.89-11.31,23.89-.49,1.29-.89,2.62-1.19,3.96l-.66,1.4c-.1,.19-.11,.41-.05,.61h0c-.53,.53-.98,1.13-1.35,1.77-4.22,10.12-8.44,20.28-12.55,30.46-2.72,6.75-5.27,13.56-7.89,20.35l-.61,2.74,.04,.04-4.23,11.19h0c-1.14,2.59-2.27,5.18-3.39,7.77-.89,2.07-1.29,4.39-3.42,5.71-.39,2.03-2.09,2.62-3.69,3.32-5.83,2.54-11.67,5.1-17.49,7.65l-1.35,.11c-.04,.18-.06,.36-.06,.54-2.37,.94-4.8,1.74-7.09,2.84-14.4,6.74-28.38,14.31-41.88,22.7-2.48,1.58-4.71,3.54-7.05,5.36h0l-12.22,7.56c-2.48-3.54-5.06-7.09-7.45-10.75-5.11-6.47-9.13-13.73-11.89-21.5-1.34-5.21-.68-10.74,1.85-15.49,2.33-4.42,5.36-8.44,8.96-11.89,3.13-3.74,7.01-6.79,11.41-8.9,1.15-.33,2.34-.54,3.54-.64,.48,2.58-.14,5.25-1.7,7.35-2.53,4.67-5.31,9.21-8.06,13.77-1.18,1.63-1.43,3.76-.66,5.61,1.54,3.1,4.81,4.97,8.26,4.73,3.28,.36,6.32-1.73,7.19-4.91,1.72-5.3,3.51-10.58,4.73-15.99,.7-3.53,.98-7.14,.81-10.74,.26-4.27-2.8-8.03-7.05-8.6-4.17-.5-8.38,.65-11.72,3.19h0c-2.04,.74-4.03,1.59-5.97,2.57-7.5,4.03-13.87,9.89-18.5,17.03-2.78,3.91-4.18,8.63-3.97,13.42l-.18,2.8-2.19,3.42c-1.55,.28-2.05,1.35-2.13,2.77h0c-.53,.19-1.01,.45-1.48,.78-5.1,4.83-10.17,9.69-15.22,14.57-.34,.45-.59,.95-.76,1.48l-2.14,1.43-.65,.58c-3.54,2.38-7.01,4.83-10.63,7.14-4.75,3.51-10.18,6-15.93,7.29l-2.09-.11c-4.12-.71-7.42-3.81-8.41-7.86-.6-1.64-1.09-3.31-1.54-5-1.13-4.13-2.07-8.31-3.36-12.39-.61-1.87-1.53-3.63-2.72-5.21-1.8-3.48-6.07-4.83-9.55-3.04-.24,.13-.48,.26-.7,.41-3.29,1.7-6.47,3.61-9.53,5.7-.84,.76-1.54,1.65-2.1,2.64,.33-.05,.74-.05,1.09-.08-.36,.03-.76,0-1.09,.08h.04c-.9,.4-1.75,.91-2.53,1.51-3.33,3.26-6.57,6.57-9.85,9.88l-1.79,2.62-3.26,2.18-.39,.58,.39-.58,3.54-7.66,1.88-4.22h0c1.77-4.16,3.79-8.23,5.25-12.5,2.8-8.23,5.6-16.49,7.79-24.89,1.83-5.83-1.41-12.06-7.26-13.88-.93-.29-1.89-.46-2.87-.5-4.12-.35-8.21,.95-11.37,3.63-3.91,3.12-7.42,6.69-10.48,10.63-7.41,10.24-14.29,20.87-21.43,31.3-6.82,9.97-13.71,19.89-20.63,29.79-.56,.64-1.21,1.21-1.92,1.7l-.75-.31c.09-1.67,.28-3.32,.56-4.95,4.14-14.87,9.14-29.5,14.97-43.8,2.94-7.95,6.36-15.69,9.54-23.58,1.18-2.07,.45-4.68-1.62-5.86-.49-.28-1.01-.45-1.58-.53-3.61-.99-7.44-.74-10.88,.71-2.03,.65-3.63,2.22-4.33,4.22-1.44,3.92-3.17,7.75-4.43,11.72-4.19,13.16-8.44,26.32-12.24,39.58-2.33,8.1-4.09,16.41-5.63,24.73-.31,3.1-.11,6.25,.58,9.29,.71,4.66,9.11,6.51,12.07,4.16,3.52-2.45,6.71-5.35,9.5-8.6,6.34-8.6,12.27-17.48,18.03-26.47,7.39-11.52,14.32-23.34,21.71-34.87,3.1-4.63,6.49-9.06,10.12-13.28,1.63-2.2,4.18-3.53,6.92-3.62,.31,1.46,.43,2.97,.31,4.46-.89,4.67-2.12,9.26-3.67,13.76-4.48,11.59-9.33,23.04-14.05,34.53-2.03,4.93-4.46,9.73-6.16,14.77-1.29,3.28,.31,6.99,3.59,8.28,.41,.16,.83,.28,1.26,.35,8.6,2.24,13.31,.4,19.32-8.16h0c1.85-1.85,3.84-3.58,5.52-5.57,2.48-2.95,4.73-6.11,7.09-9.18,1.24-1.01,2.57-1.9,3.69-3.02,3.04-3.58,6.82-6.44,11.09-8.4,.99,1.51,1.83,3.12,2.53,4.78,1.48,5.51,3.69,10.78,6.57,15.69,1.51,3.32,4.54,5.7,8.13,6.37h0c.59,.41,1.13,1.08,1.77,1.2,4.57,.88,9.29,.29,13.51-1.68,5.06-2.27,10.02-4.72,14.94-7.26,1.72-1.04,3.37-2.22,4.91-3.51h0c.58-.03,1.14-.16,1.67-.39,5.42-3.89,10.83-7.79,16.16-11.81,.98-.94,1.84-1.99,2.57-3.13v-.03l5.95-3.43c4.26,7.67,9.38,14.84,15.29,21.33,.71,.66,1.51,1.24,2.37,1.72h0c.14,.66,.35,1.29,.66,1.89,1.62,2.28,3.31,4.51,4.88,6.64l-5.51,5.28h.03l-.73,.71v-.04c-.96,.38-1.88,.85-2.74,1.43-3.81,3.22-7.65,6.41-11.29,9.82-7.4,6.9-14.26,14.34-20.52,22.27-.74,1.15-1.36,2.37-1.85,3.63h0l1.13,2.73-3.94,1.46h0c.51,4.33-1.68,8.54-5.52,10.59-2.67,5.87-2.83,12.57-.45,18.57,1.21,3.86,4.33,6.82,8.24,7.84,7.35,2.02,15.19,1.36,22.11-1.85,7.54-3.73,14.05-9.24,18.99-16.04,6.06-7.96,10.35-17.13,12.6-26.88,2.02-7.91,2.3-16.16,.81-24.2-.78-3.94-2.12-7.77-3.39-12.33,.16-.1,.76-.5,1.36-.85l22.97-13.73c.26-.36,.44-.88,.79-1.05,7.56-3.74,15.15-7.46,22.75-11.13,4.68-2.27,9.4-4.48,14.14-6.69,.75-.28,1.53-.49,2.32-.64,.16-.14,.38-.23,.6-.24,4.71-2.64,9.77-4.59,15.01-5.83,1.04-.36,1.83,0,1.9,1.28-1.19,4.23-2.42,8.46-3.58,12.71-.95,3.46-1.84,6.92-2.75,10.39-.06,.16-.08,.34-.05,.5-1.36,5.11-2.8,10.19-4.04,15.32-.83,3.32-1.4,6.71-2.09,10.07-.1,1.15-.19,2.32-.29,3.47l-.4,1.43c-.24,1.6-.4,3.21-.48,4.83-.06,1.26,.16,2.52,.66,3.68,.94,1.54,2.74,2.33,4.51,1.98,1.63-.09,1.87-1.29,2.44-2.49,2.04-4.56,4.33-8.99,6.85-13.3,5.85-8.93,12.21-17.52,19.04-25.72,8.94-11.17,18.64-21.7,29.05-31.53,1.25-1.2,2.65-2.27,4.14-3.16,1.2-.51,2.45-.88,3.73-1.1,.06,1.11,.06,2.23,0,3.34-.68,5.06-1.29,10.12-2.15,15.14-.9,5.63-.6,11.41,.88,16.91,.79,6,5.55,10.69,11.54,11.43,2.88,.31,5.78,.03,8.55-.84,6.84-2.17,13.56-4.72,20.25-7.29,8.78-3.36,17.52-6.85,26.24-10.3,10.37-4.11,20.75-8.18,31.06-12.39,19.37-7.93,39.13-14.71,59.08-20.92,14.05-4.37,28.31-8.03,42.72-11.19,16.61-3.82,33.53-6.25,50.54-7.24,16.04-1.31,32.19-.68,48.08,1.89,9.65,1.43,18.98,4.62,27.49,9.4,4.58,2.57,8.43,6.3,11.13,10.8,.71,1.9,2.63,3.08,4.64,2.84,2.37,0,4.49-1.48,5.33-3.69,.89-2.65,.1-5.57-1.99-7.42h-.03ZM91.49,227.15h0c-.25,.45-.48,.93-.71,1.39,.24-.46,.46-.94,.71-1.39Zm117.63,21.51h0l-.4-.41,.4,.41Zm-13.32,70.81c0,2.05-1.67,3.71-3.72,3.71-.14,0-.28,0-.41-.03,.39,1.5-.46,3.05-1.94,3.54-2.03,.98-4.38,1.36-5.8,3.43-.31,.46-1.25,.48-1.88,.76-2.68,1.21-5.87-.81-8.46,1.33-.26,.21-1.21-.39-1.85-.61s-1.35-.79-1.88-.65c-3.67,.98-5.1-1.9-6.89-3.99-1.43-2.38-.94-5.43,1.15-7.26l.2-1.41c-.21-.84-.81-1.8-.58-2.48,1.19-3.49,1.36-7.67,5.62-9.34-.16-1.62-.43-3.26,1.45-4.14,.69-4.26,4.82-5.93,6.81-9.19,.54-1.04,1.7-1.62,2.85-1.43,.13-3.23,.23-3.38,2.9-4.08h0c.61-.26,1.2-.6,1.73-1.01,3.23-3.17,6.44-6.37,9.62-9.62,.49-.63,.9-1.3,1.24-2.03l-.73,.39,.73-.39h0l2.32-2.08c.14,.04,.28,0,.39-.08l12.72-10.49c.2,0,.41-.05,.6-.14,.55,1.13,1.05,2.28,1.48,3.46,1.7,6.07,1.83,12.47,.39,18.6-1.84,9.13-5.46,17.8-10.65,25.53-1.93,2.88-4.09,5.6-6.15,8.4l-1.25,1.29h-.01Zm105.82-69.1h0l-.56,.68,.56-.68h0Zm65.44-175.48c1.67-2.3,3.41-5.47,7.27-4.97,.06,1.35,.13,2.69,.19,4.02-.36,2.63-.93,5.25-1.68,7.79-2.6,7.09-5.28,14.14-8.28,21.06-7.89,17.99-16.83,35.49-26.79,52.42-.26,.64-.45,1.3-.54,1.98h0l-2.82,4.91h0c-.55,.71-1.16,1.38-1.64,2.14-2.69,4.26-5.36,8.53-8.04,12.8l-1.87,4.01-1.88,4.02,.09,.14-.85,.68-1.14,.76,4.24-11.17c.19-.65,.36-1.3,.58-1.95,1.2-3.56,2.42-7.11,3.64-10.67,.08-.14,.08-.31,0-.45,.41-.4,.78-.85,1.06-1.35,1.45-3.54,2.92-7.09,4.24-10.65,1.55-4.23,2.98-8.5,4.47-12.76,.06-.14,.1-.29,.08-.44,1.31-2.69,2.72-5.35,3.92-8.1,6-13.66,11.83-27.42,17.99-40.99,2.12-4.66,4.71-9.09,7.71-13.23h0l.02,.03Z" />
        </g>
    </g>
</svg>