<?xml version="1.0" encoding="UTF-8"?>
<!DOCTYPE svg PUBLIC "-//W3C//DTD SVG 1.1//EN" "http://www.w3.org/Graphics/SVG/1.1/DTD/svg11.dtd">
<!-- Creator: CorelDRAW -->
<svg xmlns="http://www.w3.org/2000/svg" xml:space="preserve" width="8.5in" height="11in" version="1.1" style="shape-rendering:geometricPrecision; text-rendering:geometricPrecision; image-rendering:optimizeQuality; fill-rule:evenodd; clip-rule:evenodd"
viewBox="0 0 8500 11000"
 xmlns:xlink="http://www.w3.org/1999/xlink"
 xmlns:xodm="http://www.corel.com/coreldraw/odm/2003">
 <defs>
  <style type="text/css">
   <![CDATA[
    .str0 {stroke:#FEFEFE;stroke-width:27.78;stroke-linejoin:round;stroke-miterlimit:2.61313}
    .fil0 {fill:#EBD0BD}
    .fil1 {fill:#FEFEFE;fill-rule:nonzero}
   ]]>
  </style>
 </defs>
 <g id="Capa_x0020_1">
  <metadata id="CorelCorpID_0Corel-Layer"/>
  <circle class="fil0" cx="3636.39" cy="3627.89" r="1945.69"/>
  <path id="Path_44" class="fil1 str0" d="M5386.59 3661.87c-346.7,-131.46 -730.07,-61.24 -994.68,86.32 -64.93,36.21 -107.04,52.28 -119.05,26.07 -19.06,-41.59 6.19,-179.78 10.29,-233.39 3.98,-81.41 -95.57,-70.85 -137.89,-38.61 -139.64,103.75 -181.26,180.34 -275.59,309.61 -11.58,16.69 -8.28,-13.69 -8.28,-13.69 48.57,-223.41 130.37,-309.17 240.74,-483.25 102.96,-192.52 268.76,-435.54 314.89,-659.35 3.43,-22.11 3.7,-44.64 0.96,-66.96 -11.29,-43.17 -94.6,-63.46 -135.4,-34.47 -101.97,72.45 -250.37,482.2 -311.33,689.08 -25.68,87.17 -36.28,126.65 -74.87,215.89 -11.39,26.48 -20.92,49.68 -48.69,61.83 -223.58,97.41 -371.17,180.67 -596.63,320.16 -50.28,-71.78 -102.59,-136.84 -132.42,-220.81 -9.17,-35.67 -4.65,-73.54 12.67,-106.06 15.95,-30.27 36.7,-57.79 61.35,-81.41 21.43,-25.61 48,-46.49 78.12,-60.94 41.34,-11.86 26.85,26.75 12.6,45.94 -17.32,31.98 -36.35,63.06 -55.19,94.28 -8.08,11.16 -9.79,25.74 -4.52,38.41 10.54,21.22 32.93,34.03 56.56,32.39 22.46,2.46 43.27,-11.85 49.23,-33.62 11.78,-36.29 24.04,-72.44 32.39,-109.48 4.8,-24.17 6.71,-48.89 5.55,-73.54 1.78,-29.24 -19.17,-54.98 -48.27,-58.88 -82.17,-9.85 -212.44,101.52 -247.79,156.04 -19.04,26.77 -28.62,59.09 -27.18,91.89l-1.23 19.17c-52.15,81.45 -266.37,274.58 -364.39,269.43 -28.21,-4.86 -50.8,-26.09 -57.58,-53.81 -14.01,-38.28 -21.17,-79.92 -33.55,-119.07 -11.48,-35.18 -41.58,-78.31 -84.01,-56.48 -1.65,0.89 -3.29,1.78 -4.8,2.81 -90.72,46.88 -130.39,122.28 -198.69,167.95l-2.67 3.97 2.67 -3.97c23.18,-50.15 55.67,-116.07 73.06,-166.93 19.17,-56.35 38.34,-112.91 53.33,-170.42 15.07,-48 -19.83,-96.43 -69.36,-98.46 -28.21,-2.4 -56.21,6.5 -77.85,24.85 -26.77,21.36 -50.8,45.8 -71.75,72.78 -50.74,70.11 -97.84,142.89 -146.73,214.31 -46.7,68.26 -93.87,136.19 -141.25,203.97 -21.72,24.81 -19.28,3.3 -16.11,-14.98 14.51,-83.99 70.91,-227.72 104.17,-309.29 20.13,-54.43 43.55,-107.43 65.32,-161.45 30.64,-53.75 -67.57,-51.05 -96.4,-38.89 -13.9,4.45 -24.85,15.2 -29.65,28.89 -9.86,26.84 -21.7,53.06 -30.33,80.24 -28.69,90.1 -57.79,180.21 -83.8,271 -18.11,62.93 -49.19,168.54 -34.57,232.93 4.86,31.91 62.37,44.57 82.64,28.48 24.1,-16.77 45.94,-36.63 65.05,-58.88 43.41,-58.88 84.01,-119.68 123.44,-181.24 50.6,-78.87 98.05,-159.81 148.65,-238.75 16.06,-22.86 134,-183.22 112.62,-56.28 -3.76,22.35 -11.56,43.83 -18.96,65.32 -30.67,79.35 -63.88,157.75 -96.2,236.43 -13.9,33.75 -30.54,66.62 -42.18,101.13 -8.83,22.46 2.12,47.86 24.58,56.69 2.81,1.09 5.68,1.92 8.63,2.4 58.88,15.34 91.13,2.74 132.28,-55.87l-0 0c54.08,-54.08 103.08,-129.44 167.44,-168.48 23.65,-14.34 32.17,10.77 33.6,13.87 16.5,35.67 22.92,99.03 45.63,137.75 25.67,56.44 106.64,61.46 158.7,37.16 158.66,-71.18 174.46,-136.87 321.08,-221.39 35.95,64.74 108.84,148.39 158.84,216.22 -118.2,113.26 -279.81,214.88 -352.83,369.97 -31.07,66 -28.33,184.79 57.38,207.15 50.33,13.83 104,9.31 151.39,-12.67 112.73,-55.77 188.54,-173.61 216.29,-293.87 13.83,-54.16 15.75,-110.65 5.55,-165.69 -5.34,-26.98 -14.52,-53.2 -23.21,-84.43 1.09,-0.69 5.2,-3.42 9.31,-5.82 119,-71.13 192.93,-116.79 318.45,-177.4 50.11,-24.3 166.93,-79.28 219.58,-91.74 7.12,-2.47 12.53,0 13.01,8.76 -24.71,87.83 -49.91,177.8 -71.34,266.48 -6.38,25.53 -29.8,132.94 -17.8,160.76 6.43,10.55 18.76,15.96 30.88,13.56 11.16,-0.61 12.8,-8.83 16.71,-17.05 13.97,-31.22 29.65,-61.56 46.9,-91.07 40.05,-61.14 83.6,-119.96 130.36,-176.1 61.21,-76.48 127.63,-148.58 198.9,-215.88 8.56,-8.22 18.14,-15.54 28.35,-21.64 52.78,-22.42 17.79,78.31 10.81,119 -10.93,68.37 -2.54,183.22 85.04,194.04 46.76,5.04 242.04,-183.14 568.83,-202.17 162.4,-13.26 372.03,-4.37 517.42,77.3 31.36,17.59 57.72,43.13 76.2,73.94 4.86,13.01 18.01,21.09 31.77,19.44 16.23,0 30.74,-10.13 36.5,-25.26 20.35,-60.59 -109.22,-125.46 -141.67,-136.19zm-2416.77 728.71c-83.36,-8.52 -72.28,-72.83 -43.92,-130.57 77.24,-157.19 188.59,-242.05 314.13,-345.59 1.37,0 2.81,-0.34 4.11,-0.96 3.76,7.74 7.19,15.61 10.13,23.69 11.64,41.56 12.53,85.38 2.67,127.35 17.78,25.01 -115.4,343.64 -287.12,326.07zm1387.14 -1765.96c-1.52,11.06 -3.57,22.09 -6.12,32.98 -62.85,268.75 -282.46,571.27 -346.96,702.57 -6.84,13.92 -12.91,27.09 -26.52,36.17 92.33,-243.24 171.48,-522.2 311.86,-741.17 15.07,-23.51 64.6,-99.8 67.73,-30.54z"/>
 </g>
</svg>
